<?xml version="1.0" standalone="no"?>
<!DOCTYPE svg PUBLIC "-//W3C//DTD SVG 20010904//EN"
 "http://www.w3.org/TR/2001/REC-SVG-20010904/DTD/svg10.dtd">
<svg version="1.0" xmlns="http://www.w3.org/2000/svg"
 width="512.000000pt" height="512.000000pt" viewBox="0 0 512.000000 512.000000"
 preserveAspectRatio="xMidYMid meet">

<g transform="translate(0.000000,512.000000) scale(0.100000,-0.100000)"
fill="#000000" stroke="none">
<path d="M115 4623 c-35 -9 -87 -54 -101 -89 -11 -27 -14 -128 -14 -529 l0
-495 440 0 440 0 0 560 0 560 -372 -1 c-205 -1 -382 -4 -393 -6z"/>
<path d="M1190 2560 l0 -2070 1370 0 1370 0 0 2070 0 2070 -1370 0 -1370 0 0
-2070z m1059 716 c138 -70 1020 -591 1043 -616 49 -53 49 -147 0 -200 -23 -25
-905 -546 -1043 -616 -26 -13 -61 -24 -78 -24 -68 0 -128 44 -150 109 -16 48
-16 1214 0 1262 33 98 131 134 228 85z"/>
<path d="M4240 4070 l0 -560 440 0 440 0 0 495 c0 550 1 540 -66 591 l-37 29
-389 3 -388 3 0 -561z"/>
<path d="M0 2560 l0 -640 440 0 440 0 0 640 0 640 -440 0 -440 0 0 -640z"/>
<path d="M4240 2560 l0 -640 440 0 440 0 0 640 0 640 -440 0 -440 0 0 -640z"/>
<path d="M0 1115 c0 -550 -1 -540 66 -591 l37 -29 389 -3 388 -3 0 561 0 560
-440 0 -440 0 0 -495z"/>
<path d="M4240 1050 l0 -561 388 3 389 3 37 29 c67 51 66 41 66 591 l0 495
-440 0 -440 0 0 -560z"/>
</g>
</svg>
