<?xml version="1.0" standalone="no"?>
<!DOCTYPE svg PUBLIC "-//W3C//DTD SVG 20010904//EN"
 "http://www.w3.org/TR/2001/REC-SVG-20010904/DTD/svg10.dtd">
<svg version="1.0" xmlns="http://www.w3.org/2000/svg"
 width="512.000000pt" height="512.000000pt" viewBox="0 0 512.000000 512.000000"
 preserveAspectRatio="xMidYMid meet">

<g transform="translate(0.000000,512.000000) scale(0.100000,-0.100000)"
fill="#000000" stroke="none">
<path d="M1165 5101 c-49 -22 -93 -65 -111 -108 -17 -41 -20 -496 -3 -540 15
-40 67 -92 114 -114 96 -45 216 -3 268 94 21 39 22 56 25 275 3 228 3 233 -21
286 -49 107 -169 154 -272 107z"/>
<path d="M3800 5107 c-48 -15 -113 -83 -128 -133 -8 -27 -12 -116 -12 -260 0
-210 1 -221 24 -270 49 -105 169 -152 272 -105 49 22 112 93 119 135 4 17 5
139 3 272 l-3 241 -29 41 c-52 76 -153 108 -246 79z"/>
<path d="M0 4110 l0 -500 2560 0 2560 0 0 500 0 500 -370 0 -370 0 0 -77 c-1
-97 -13 -150 -53 -233 -40 -81 -131 -174 -213 -217 -345 -183 -753 69 -754
465 l0 62 -800 0 -800 0 0 -62 c-1 -223 -133 -417 -336 -494 -238 -89 -520 21
-631 246 -40 83 -52 136 -53 233 l0 77 -370 0 -370 0 0 -500z"/>
<path d="M0 1655 l0 -1655 2560 0 2560 0 0 1655 0 1655 -2560 0 -2560 0 0
-1655z m2753 1330 c262 -46 494 -169 674 -358 345 -364 428 -894 209 -1343
-156 -319 -435 -547 -783 -641 -90 -25 -113 -27 -293 -27 -180 0 -203 2 -293
27 -202 54 -370 147 -520 287 -117 109 -197 217 -263 355 -187 388 -155 831
86 1191 63 93 208 241 300 306 136 95 320 172 489 202 103 19 289 19 394 1z"/>
<path d="M2390 2685 c-278 -56 -510 -235 -635 -490 -65 -133 -89 -241 -88
-400 1 -153 21 -244 84 -374 151 -317 458 -511 809 -511 230 0 437 80 609 235
115 105 219 279 262 440 31 115 31 307 1 428 -86 348 -358 605 -710 673 -90
17 -244 17 -332 -1z m418 -1042 l-373 -373 -247 247 -248 248 102 102 c57 57
107 103 113 103 5 0 71 -61 145 -135 l135 -135 265 265 265 265 107 -107 108
-108 -372 -372z"/>
</g>
</svg>
